<?xml version="1.0" encoding="UTF-8"?>
<svg width="200" height="200" viewBox="0 0 200 200" xmlns="http://www.w3.org/2000/svg">
  <circle cx="100" cy="100" r="95" fill="#D5B8E6" />
  <circle cx="100" cy="100" r="85" fill="#9C27B0" />
  
  <!-- Mandala border pattern -->
  <g stroke="#F8EAF9" stroke-width="2" fill="none">
    <circle cx="100" cy="100" r="80" />
    <circle cx="100" cy="100" r="73" />
    <circle cx="100" cy="100" r="66" />
    
    <!-- Complex mandala elements -->
    <path d="M100,20 L100,180 M20,100 L180,100" />
    <path d="M37,37 L163,163 M37,163 L163,37" />
    
    <!-- Flower of life pattern -->
    <circle cx="100" cy="66" r="24" />
    <circle cx="121" cy="80" r="24" />
    <circle cx="121" cy="120" r="24" />
    <circle cx="100" cy="134" r="24" />
    <circle cx="79" cy="120" r="24" />
    <circle cx="79" cy="80" r="24" />
    
    <!-- Om symbol hint -->
    <path d="M95,40 C105,35 110,45 105,50 C100,55 90,60 90,70 C90,80 100,85 105,80 C110,75 110,65 105,60" 
          stroke="#F8EAF9" stroke-width="2.5" fill="none" />
  </g>
  
  <!-- Wise elder character -->
  <g>
    <!-- Face -->
    <circle cx="100" cy="100" r="40" fill="#FFDAB9" />
    
    <!-- Grey hair -->
    <path d="M60,85 C60,60 80,50 100,50 C120,50 140,60 140,85" fill="#E0E0E0" />
    <path d="M65,80 C65,65 80,60 100,60 C120,60 135,65 135,80" fill="#E0E0E0" />
    
    <!-- Ornate bindi -->
    <circle cx="100" cy="80" r="3" fill="#FFD700" />
    <circle cx="100" cy="80" r="1.5" fill="#FF0000" />
    
    <!-- Eyes -->
    <path d="M85,95 C90,90 95,90 100,95" stroke="#333" stroke-width="1.5" fill="none" />
    <path d="M100,95 C105,90 110,90 115,95" stroke="#333" stroke-width="1.5" fill="none" />
    <line x1="85" y1="95" x2="85" y2="97" stroke="#333" stroke-width="1.5" />
    <line x1="115" y1="95" x2="115" y2="97" stroke="#333" stroke-width="1.5" />
    
    <!-- Nose and mouth -->
    <path d="M100,95 L100,105" stroke="#333" stroke-width="1" />
    <path d="M90,115 C95,120 105,120 110,115" stroke="#333" stroke-width="1.5" fill="none" />
    
    <!-- Wisdom accessories -->
    <path d="M70,140 L130,140" stroke="#E0E0E0" stroke-width="6" />
    <rect x="70" y="125" width="60" height="15" fill="#F8EAF9" />
    <path d="M75,125 L75,140 M85,125 L85,140 M95,125 L95,140 M105,125 L105,140 M115,125 L115,140 M125,125 L125,140" 
          stroke="#9C27B0" stroke-width="1" />
    <circle cx="90" cy="132" r="3" fill="#FFD700" />
    <circle cx="110" cy="132" r="3" fill="#FFD700" />
  </g>
</svg>
