<?xml version="1.0" encoding="UTF-8"?>
<svg width="600" height="600" viewBox="0 0 600 600" xmlns="http://www.w3.org/2000/svg">
  <!-- Main background mandala - to be used in background patterns -->
  <g stroke="#FF993333" stroke-width="0.5" fill="none">
    <!-- Large circular structure -->
    <circle cx="300" cy="300" r="280" />
    <circle cx="300" cy="300" r="260" />
    <circle cx="300" cy="300" r="240" />
    <circle cx="300" cy="300" r="220" />
    <circle cx="300" cy="300" r="200" />
    <circle cx="300" cy="300" r="180" />
    <circle cx="300" cy="300" r="160" />
    <circle cx="300" cy="300" r="140" />
    <circle cx="300" cy="300" r="120" />
    <circle cx="300" cy="300" r="100" />
    <circle cx="300" cy="300" r="80" />
    
    <!-- Radial lines -->
    <g>
      <path d="M300,20 L300,580" />
      <path d="M20,300 L580,300" />
      <path d="M87,87 L513,513" />
      <path d="M87,513 L513,87" />
    </g>
    
    <!-- 30-degree radial lines -->
    <g>
      <path d="M300,300 L450,127" />
      <path d="M300,300 L473,300" />
      <path d="M300,300 L450,473" />
      <path d="M300,300 L300,473" />
      <path d="M300,300 L150,473" />
      <path d="M300,300 L127,300" />
      <path d="M300,300 L150,127" />
      <path d="M300,300 L300,127" />
    </g>
    
    <!-- Geometric patterns -->
    <g>
      <!-- Inner lotus petals -->
      <path d="M300,200 C320,240 340,260 380,260 C340,280 320,300 300,340 C280,300 260,280 220,260 C260,260 280,240 300,200" />
      <path d="M300,200 C320,240 340,260 380,260 C340,280 320,300 300,340 C280,300 260,280 220,260 C260,260 280,240 300,200" transform="rotate(45 300 300)" />
      <path d="M300,200 C320,240 340,260 380,260 C340,280 320,300 300,340 C280,300 260,280 220,260 C260,260 280,240 300,200" transform="rotate(90 300 300)" />
      <path d="M300,200 C320,240 340,260 380,260 C340,280 320,300 300,340 C280,300 260,280 220,260 C260,260 280,240 300,200" transform="rotate(135 300 300)" />
      <path d="M300,200 C320,240 340,260 380,260 C340,280 320,300 300,340 C280,300 260,280 220,260 C260,260 280,240 300,200" transform="rotate(180 300 300)" />
      <path d="M300,200 C320,240 340,260 380,260 C340,280 320,300 300,340 C280,300 260,280 220,260 C260,260 280,240 300,200" transform="rotate(225 300 300)" />
      <path d="M300,200 C320,240 340,260 380,260 C340,280 320,300 300,340 C280,300 260,280 220,260 C260,260 280,240 300,200" transform="rotate(270 300 300)" />
      <path d="M300,200 C320,240 340,260 380,260 C340,280 320,300 300,340 C280,300 260,280 220,260 C260,260 280,240 300,200" transform="rotate(315 300 300)" />
      
      <!-- Outer lotus petals -->
      <path d="M300,140 C330,180 360,200 400,200 C360,240 330,260 300,300 C270,260 240,240 200,200 C240,200 270,180 300,140" />
      <path d="M300,140 C330,180 360,200 400,200 C360,240 330,260 300,300 C270,260 240,240 200,200 C240,200 270,180 300,140" transform="rotate(45 300 300)" />
      <path d="M300,140 C330,180 360,200 400,200 C360,240 330,260 300,300 C270,260 240,240 200,200 C240,200 270,180 300,140" transform="rotate(90 300 300)" />
      <path d="M300,140 C330,180 360,200 400,200 C360,240 330,260 300,300 C270,260 240,240 200,200 C240,200 270,180 300,140" transform="rotate(135 300 300)" />
      <path d="M300,140 C330,180 360,200 400,200 C360,240 330,260 300,300 C270,260 240,240 200,200 C240,200 270,180 300,140" transform="rotate(180 300 300)" />
      <path d="M300,140 C330,180 360,200 400,200 C360,240 330,260 300,300 C270,260 240,240 200,200 C240,200 270,180 300,140" transform="rotate(225 300 300)" />
      <path d="M300,140 C330,180 360,200 400,200 C360,240 330,260 300,300 C270,260 240,240 200,200 C240,200 270,180 300,140" transform="rotate(270 300 300)" />
      <path d="M300,140 C330,180 360,200 400,200 C360,240 330,260 300,300 C270,260 240,240 200,200 C240,200 270,180 300,140" transform="rotate(315 300 300)" />
    </g>
    
    <!-- Ornate details -->
    <g>
      <path d="M300,60 C320,80 340,80 360,60 C340,40 320,40 300,60" />
      <path d="M300,60 C320,80 340,80 360,60 C340,40 320,40 300,60" transform="rotate(45 300 300)" />
      <path d="M300,60 C320,80 340,80 360,60 C340,40 320,40 300,60" transform="rotate(90 300 300)" />
      <path d="M300,60 C320,80 340,80 360,60 C340,40 320,40 300,60" transform="rotate(135 300 300)" />
      <path d="M300,60 C320,80 340,80 360,60 C340,40 320,40 300,60" transform="rotate(180 300 300)" />
      <path d="M300,60 C320,80 340,80 360,60 C340,40 320,40 300,60" transform="rotate(225 300 300)" />
      <path d="M300,60 C320,80 340,80 360,60 C340,40 320,40 300,60" transform="rotate(270 300 300)" />
      <path d="M300,60 C320,80 340,80 360,60 C340,40 320,40 300,60" transform="rotate(315 300 300)" />
    </g>
    
    <!-- Central decorative elements -->
    <g>
      <circle cx="300" cy="300" r="40" />
      <circle cx="300" cy="300" r="25" />
      <circle cx="300" cy="300" r="10" />
    </g>
  </g>
</svg>
